<?xml version="1.0" encoding="UTF-8" standalone="no"?>
<!-- Created with Inkscape (http://www.inkscape.org/) -->

<svg
   xmlns:dc="http://purl.org/dc/elements/1.1/"
   xmlns:cc="http://creativecommons.org/ns#"
   xmlns:rdf="http://www.w3.org/1999/02/22-rdf-syntax-ns#"
   xmlns:svg="http://www.w3.org/2000/svg"
   xmlns="http://www.w3.org/2000/svg"
   xmlns:sodipodi="http://sodipodi.sourceforge.net/DTD/sodipodi-0.dtd"
   xmlns:inkscape="http://www.inkscape.org/namespaces/inkscape"
   width="423.84641"
   height="426.7226"
   id="svg2"
   version="1.1"
   inkscape:version="0.48.0 r9654"
   sodipodi:docname="Nuovo documento 1">
  <defs
     id="defs4" />
  <sodipodi:namedview
     id="base"
     pagecolor="#ffffff"
     bordercolor="#666666"
     borderopacity="1.0"
     inkscape:pageopacity="0.0"
     inkscape:pageshadow="2"
     inkscape:zoom="0.7"
     inkscape:cx="274.28966"
     inkscape:cy="208.85066"
     inkscape:document-units="px"
     inkscape:current-layer="layer1"
     showgrid="false"
     fit-margin-top="0"
     fit-margin-left="0"
     fit-margin-right="0"
     fit-margin-bottom="0"
     inkscape:window-width="1680"
     inkscape:window-height="994"
     inkscape:window-x="-4"
     inkscape:window-y="-4"
     inkscape:window-maximized="1" />
  <metadata
     id="metadata7">
    <rdf:RDF>
      <cc:Work
         rdf:about="">
        <dc:format>image/svg+xml</dc:format>
        <dc:type
           rdf:resource="http://purl.org/dc/dcmitype/StillImage" />
        <dc:title></dc:title>
      </cc:Work>
    </rdf:RDF>
  </metadata>
  <g
     inkscape:label="Livello 1"
     inkscape:groupmode="layer"
     id="layer1"
     transform="translate(-227.49605,-417.34737)">
    <path
       style="fill:#000000"
       d="m 158.57143,165.42857 c -2.10249,-2.10249 -1.98076,-3.63847 0.54257,-6.84637 2.4552,-3.12127 1.98265,-4.23948 -1.09541,-2.59215 C 154.6865,157.77333 151,154.9419 151,150.59939 c 0,-3.47943 2.13816,-6.25007 3.9562,-5.12646 2.65409,1.64032 0.59085,-1.76799 -3.61832,-5.97715 -6.37312,-6.37313 -8.82433,-7.84149 -11.83059,-7.08696 -3.16762,0.79502 -3.22348,2.19461 -0.11871,2.97386 5.6179,1.41 10.03538,9.74298 7.99024,15.07252 -0.93406,2.43412 -5.98141,4.68265 -8.8789,3.95542 -2.74196,-0.68818 -4.46803,-4.84251 -2.73292,-6.57762 1.61723,-1.61723 4.59392,-0.53176 5.18915,1.89227 0.74149,3.01964 3.33432,1.36536 2.88134,-1.83836 -0.28491,-2.01505 -1.03854,-2.46885 -4.83749,-2.91285 -5.75229,-0.67231 -7,-1.49937 -7,-4.64007 0,-1.85402 0.40853,-2.3912 1.5,-1.97236 2.74364,1.05283 1.54775,-1.28558 -1.45034,-2.83595 C 128.15098,133.50959 127,133.60143 127,135.92857 127,138.40499 124.40499,141 121.92857,141 c -2.08314,0 -2.68454,-2.58134 -0.75152,-3.22568 0.65389,-0.21797 0.83872,-0.93979 0.41584,-1.62401 -0.41866,-0.67742 -1.56061,-0.97794 -2.53767,-0.66784 -0.99834,0.31687 -2.82306,-0.28416 -4.16584,-1.37214 -2.11286,-1.71193 -2.26175,-2.27477 -1.28649,-4.86353 0.96662,-2.56586 0.81061,-3.20887 -1.26267,-5.20434 -1.30105,-1.25222 -3.14282,-3.59257 -4.09281,-5.20078 -1.77583,-3.00623 -5.09489,-4.49792 -7.74517,-3.48091 C 99.676006,115.67782 99,116.4495 99,117.0756 c 0,0.62611 0.692034,0.87282 1.53785,0.54825 2.0376,-0.7819 2.90145,1.6868 1.50397,4.29801 -1.41693,2.64755 -4.503102,2.64633 -10.495003,-0.004 -4.479488,-1.98149 -4.800372,-1.99819 -6.627119,-0.34501 -1.055834,0.95552 -1.905386,2.68006 -1.887895,3.83232 0.03043,2.00417 0.09219,2.01532 1.424492,0.25714 1.680127,-2.21718 4.887673,-1.83012 5.364797,0.64739 C 90.295986,128.77545 88.215443,131 85.434259,131 82.780772,131 80,127.59928 80,124.35422 80,119.73512 88.426422,113 94.205457,113 c 1.136908,0 1.776323,-0.52538 1.521321,-1.25 -0.242472,-0.68901 -1.850629,-1.18383 -3.583333,-1.10255 C 89.322526,110.77977 89,110.50367 89,107.95647 89,106.39533 88.55,104.83992 88,104.5 87.45,104.16008 87,103.51972 87,103.07698 87,101.6639 94.524084,97 96.803751,97 98.011688,97 99,96.653857 99,96.230793 c 0,-0.423063 -2.924442,-0.760563 -6.498759,-0.75 L 86.002482,95.5 l -0.0232,6.5 c -0.02695,7.54866 -2.34973,13.57304 -6.488507,16.8286 -3.272178,2.57389 -5.260116,2.72169 -8.268266,0.6147 -2.927001,-2.05016 -3.018601,-6.94688 -0.158584,-8.47751 3.782052,-2.02409 6.932364,2.81765 3.194408,4.90952 -2.264361,1.2672 -1.019544,2.50107 1.663986,1.64935 3.034891,-0.96324 3.647142,-4.89419 1.364881,-8.76321 -3.078768,-5.2193 -3.380743,-7.6679 -1.212984,-9.835663 2.602597,-2.602597 5.324645,-2.559023 4.636038,0.07421 C 80.370332,100.29986 80.679574,101 81.593623,101 84.007813,101 83.201616,96.091348 80.35398,93.452248 78.898665,92.103513 77.358191,91 76.930703,91 c -0.427489,0 -2.239223,-1.230167 -4.026076,-2.733705 -2.154162,-1.812607 -3.387386,-2.318019 -3.660059,-1.5 C 69.018389,87.444833 67.555732,88 65.994219,88 63.593172,88 62.970201,87.421386 61.95675,84.25 60.435996,79.491118 59.252571,78.178235 58.425794,80.332783 57.493745,82.761664 56,82.372012 56,79.7 56,76.942113 57.735505,75 60.2,75 c 2.376919,0 2.270634,-1.502431 -0.413525,-5.845492 -2.192271,-3.547168 -2.219527,-3.557904 -2.838526,-1.118033 -1.141351,4.498795 -5.389424,1.85781 -6.31421,-3.925481 -0.747171,-4.672552 -3.051193,-6.967413 -5.467562,-5.445822 -2.633414,1.658265 -2.607849,4.015647 0.0425,3.918669 C 47.008446,62.517986 47.5,63.036321 47.5,65 c 0,3.422805 -3.721978,3.948869 -5.903443,0.834392 -2.128307,-3.038583 -2.012341,-5.03609 0.476023,-8.199533 3.891894,-4.947742 13.57624,-2.549403 17.808717,4.410347 1.505156,2.475031 1.983617,2.749206 2.49086,1.427352 1.343213,-3.500357 0.413184,-5.279034 -5.506195,-10.530576 -9.007192,-7.990981 -9.869848,-8.41314 -9.114201,-4.460228 0.38366,2.006985 -0.06283,2.686015 -2.333915,3.549481 -3.986389,1.515622 -7.978737,-1.526576 -7.770398,-5.921099 C 37.745433,44.043335 37.326105,43 36.397448,43 35.628852,43 35,43.459647 35,44.021439 c 0,0.561791 -1.123172,1.53319 -2.495938,2.158664 -2.037274,0.928244 -2.838381,0.827318 -4.359437,-0.549219 -1.779729,-1.610632 -2.107677,-5.263617 -0.679936,-7.57375 C 28.43975,36.479453 33.573501,36.781174 35,38.5 c 2.164751,2.608365 5,1.8712 5,-1.3 0,-3.57917 1.650011,-5.2 5.29362,-5.2 2.052615,0 3.045628,0.581282 3.416631,2 0.342392,1.309308 1.364016,2 2.958262,2 1.339388,0 4.191269,1.010635 6.337512,2.245857 3.168378,1.823486 4.142725,2.005393 5.180872,0.967246 1.038146,-1.038146 0.858704,-1.388417 -0.954144,-1.862488 -2.813851,-0.735838 -2.9375,-3.992162 -0.184765,-4.865846 4.753534,-1.508713 6.668739,5.063049 2.879432,9.880372 C 63.31693,44.412547 61.979205,45 58.92742,45 56.767339,45 55,45.267559 55,45.594575 c 0,1.257264 8.364353,9.298276 9.160404,8.80629 1.472564,-0.910095 0.901926,-4.264103 -0.910404,-5.351027 -1.617115,-0.969846 -1.568311,-1.203385 0.642701,-3.075535 2.216882,-1.87712 2.524548,-1.906673 4.186987,-0.402187 2.58845,2.342515 4.101881,0.912653 3.338877,-3.154509 -0.738996,-3.939186 1.289826,-7.872891 4.602781,-8.924382 2.673383,-0.848499 5.200939,1.231055 4.433844,3.647958 C 79.713203,39.478978 80.168527,39.464834 85,37 c 4.748737,-2.422625 6,-2.502574 6,-0.383369 0,1.1885 0.595866,1.456946 2.25,1.013655 1.2375,-0.331637 2.8125,-0.609121 3.5,-0.616631 C 97.4375,37.006145 98,36.55 98,36 98,35.45 97.325,35 96.5,35 95.562745,35 95,34.052805 95,32.475249 c 0,-5.23032 9.43136,-5.501001 10.17304,-0.291967 0.19208,1.34901 1.15201,2.4518 2.32696,2.673265 1.1,0.207337 3.19447,1.224434 4.65437,2.260215 1.4599,1.035781 3.3724,1.883238 4.25,1.883238 2.13978,0 2.03425,2.65438 -0.15437,3.88306 -1.97298,1.107619 -1.80078,1.207881 5.25,3.056845 6.77647,1.777029 7.34357,1.552613 6.79747,-2.689905 -0.26549,-2.0625 -1.00353,-4.841771 -1.64009,-6.176158 -1.44078,-3.020224 -3.9233,-4.041575 -3.47557,-1.429906 0.38509,2.246325 -3.53124,3.140876 -5.73685,1.310383 C 115.79347,35.583709 115.50663,31.422952 117,30.5 c 0.55,-0.339919 1,-2.166476 1,-4.059017 C 118,23.481233 118.33365,23 120.38569,23 c 1.31213,0 3.591,-0.625321 5.06416,-1.389603 1.47315,-0.764282 3.56384,-1.158071 4.64597,-0.875088 2.34352,0.612843 4.28617,3.837598 3.28638,5.455296 -0.49617,0.802823 -0.1333,0.908553 1.20376,0.350738 5.90059,-2.461715 10.16881,-1.79698 13.83265,2.154308 2.19033,2.362168 2.77432,2.537474 5.02972,1.509845 2.6456,-1.205416 3.43176,-3.745467 1.37176,-4.432133 -1.56906,-0.523018 -0.31389,-3.646644 1.78969,-4.453865 0.91034,-0.349327 2.50591,-0.103834 3.54572,0.545539 1.32977,0.830456 2.45749,0.87727 3.80179,0.15782 C 165.00847,21.460286 167.01453,21 168.41521,21 c 3.04556,0 4.39506,3.617488 2.60043,6.970782 -0.87682,1.638344 -0.87041,2.49928 0.0266,3.580154 0.64959,0.782701 0.9097,2.5043 0.57803,3.825777 -0.72012,2.869199 -3.45428,4.219516 -4.26514,2.106428 -0.94225,-2.455444 -3.09231,-1.675902 -4.20845,1.525839 -0.93723,2.688561 -0.78248,3.183569 1.45329,4.6485 4.83891,3.170577 6.07976,7.801559 3.73066,13.923228 -0.50944,1.327575 -0.29055,1.617879 0.88093,1.168339 3.68095,-1.412511 8.0012,5.765339 4.6986,7.806457 -0.65658,0.405793 -0.83733,2.019331 -0.45468,4.059017 C 174.06122,73.843269 173.95339,74 171.12635,74 c -1.63035,0 -4.31627,0.77594 -5.96871,1.724311 -2.87506,1.65006 -3.09575,1.641671 -5.12506,-0.194826 -2.52604,-2.286032 -2.37875,-6.171562 0.21742,-5.735648 2.27389,0.381801 2.26126,-1.449852 -0.0184,-2.669894 -2.58177,-1.381723 -8.97803,-2.435219 -10.72206,-1.765975 -1.3016,0.499474 -1.21654,1.360889 0.62807,6.359878 2.58551,7.006883 2.75664,7.222513 3.98709,5.023824 1.37039,-2.448738 2.50574,-2.172965 4.15127,1.00833 3.50519,6.776541 5.27622,9.019951 7.9036,10.011676 3.25635,1.229132 4.28808,3.238981 3.42596,6.67391 -0.77845,3.101602 -4.50114,4.427653 -6.13957,2.186965 C 161.65972,94.152374 161,94.654648 161,98.5 c 0,2.44444 0.45238,3.5 1.5,3.5 2.18217,0 1.86712,1.99532 -1.5,9.5 -3.52172,7.84925 -3.50386,7.74489 -1.25,7.30544 1.19917,-0.23382 1.75,-1.27987 1.75,-3.32333 0,-2.25815 0.45907,-2.98211 1.89101,-2.98211 1.04006,0 2.37753,0.77128 2.97216,1.71397 1.80844,2.86698 -2.17224,7.21377 -6.96251,7.60286 -4.74276,0.38522 -6.63938,1.89092 -4.15066,3.29514 2.27535,1.28383 2.21917,3.15347 -0.15944,5.30607 -1.78022,1.61108 -1.97291,1.61461 -2.84725,0.0523 -0.97391,-1.74029 -4.35969,-1.71963 -4.86835,0.0297 -0.15993,0.55 1.66192,2.43654 4.04855,4.1923 l 4.33933,3.1923 0.59644,-3.72998 c 0.87068,-5.44489 3.95221,-8.33701 8.4809,-7.95961 3.30685,0.27558 3.65982,0.58629 3.65982,3.22166 0,3.4814 -1.63437,4.3061 -3.94821,1.99226 -2.96625,-2.96624 -3.79891,-0.13245 -1.05422,3.58778 1.37634,1.86552 2.50243,4.42942 2.50243,5.69757 0,1.6472 0.57732,2.30572 2.02144,2.30572 1.1879,0 2.49299,1.03495 3.16502,2.50989 0.98303,2.15751 0.81515,2.85949 -1.19575,5 -1.28664,1.36956 -3.1609,2.49011 -4.16502,2.49011 -2.18624,0 -2.47066,3.21983 -0.43375,4.91031 2.14138,1.77719 2.53867,4.74374 0.94082,7.025 -1.71597,2.44989 -5.56038,2.69421 -7.76133,0.49326 z m -22.09629,-36.41912 c 2.24883,-0.855 2.45456,-1.27229 1.50345,-3.04945 -0.60604,-1.1324 -0.96165,-3.27415 -0.79024,-4.75945 0.2459,-2.13081 0.83908,-2.70055 2.81165,-2.70055 1.80952,0 2.43095,0.48333 2.25,1.75 -0.1375,0.9625 -0.3625,2.48907 -0.5,3.39237 -0.41417,2.72086 1.82083,2.59497 3.08229,-0.17362 0.83791,-1.83903 0.87513,-3.14693 0.12919,-4.54073 -0.80725,-1.50835 -0.70453,-2.08939 0.44751,-2.53147 2.03313,-0.78018 3.51152,0.28886 4.77189,3.45059 0.58163,1.45907 1.25937,2.11137 1.50609,1.44954 0.24672,-0.66182 -0.70692,-2.90378 -2.1192,-4.98213 C 148.1555,114.2362 147,111.96519 147,111.26787 c 0,-1.93623 -1.41294,-1.52167 -3.92408,1.15131 -5.07587,5.40302 -15.86921,7.71431 -26.57513,5.69081 -2.74957,-0.51969 -5.13515,-0.80896 -5.30129,-0.64283 -0.16613,0.16614 0.80342,1.58728 2.15458,3.15809 2.35425,2.73699 2.5368,2.78347 4.38002,1.11538 2.56001,-2.31678 3.56125,-2.20443 7.13211,0.80025 3.00444,2.52806 3.02525,2.53044 4.1269,0.47199 0.60898,-1.13789 1.53466,-1.80473 2.05706,-1.48186 1.25763,0.77726 1.22059,5.18361 -0.0502,5.96899 -1.66942,1.03176 -1.12036,2.5 0.9349,2.5 1.0642,0 3.1073,-0.44575 4.54024,-0.99055 z m 20.07589,-15.47733 C 159.6318,106.1588 157.85548,95.485059 151.46615,82.977524 149.92718,79.964886 147.89456,75.025 146.94921,72 146.00386,68.975 144.61606,66.385453 143.8652,66.24545 143.11434,66.105448 140.025,67.443318 137,69.218494 l -5.5,3.227595 4.77046,0.575193 c 2.98044,0.359364 5.58621,1.390939 6.94444,2.749178 2.50926,2.509255 1.62724,4.236556 -1.24681,2.441685 -4.91623,-3.070237 -7.22255,0.119578 -2.57724,3.564507 C 142.75209,84.269317 148,91.50729 148,93.650481 148,94.480958 149.14497,95 150.97695,95 c 2.07808,0 3.47541,0.760753 4.6278,2.519523 1.56992,2.396005 1.52044,2.810117 -1.00928,8.447087 -1.78837,3.98502 -2.45015,6.7642 -2.01939,8.48048 0.88171,3.51304 2.25708,3.19645 3.97495,-0.91497 z m -19.13734,-0.63186 c 0.81575,-0.88036 0.49919,-1.03026 -1.27101,-0.60186 -1.29653,0.31377 -3.49644,0.1374 -4.88869,-0.39193 -2.9881,-1.13607 -3.53808,-0.81037 -2.62955,1.55723 0.52775,1.37528 1.42427,1.6278 4.18724,1.17943 1.93364,-0.31378 4.00454,-1.09807 4.60201,-1.74287 z M 113.28975,112 c 0.59691,-2.28261 3.23249,-2.68741 4.02643,-0.61842 0.4292,1.11847 1.35414,1.17426 4.85699,0.29294 5.57205,-1.40192 5.60692,-1.43982 3.00311,-3.2636 -5.07567,-3.55514 -7.47969,-12.831057 -5.76361,-22.238864 l 0.78946,-4.327943 -2.97988,1.540958 c -4.09339,2.116771 -5.97601,6.997071 -2.47225,6.408766 3.02995,-0.508749 2.49384,3.429195 -1.16288,8.541814 C 110.38502,102.81265 109.81398,106 112.21398,106 c 0.55,0 0.7536,-0.6421 0.45245,-1.42689 -0.93259,-2.43028 1.8596,-3.90423 3.77242,-1.9914 1.44304,1.44304 1.47355,1.91923 0.24252,3.78452 -1.73376,2.62702 -5.90535,3.27374 -7.63941,1.18433 C 108.33419,106.69775 107.39162,106 106.94736,106 c -0.79745,0 0.29445,4.9642 1.53251,6.96743 1.09313,1.76872 4.26098,1.13155 4.80988,-0.96743 z m -10.06158,-6.5 c -0.5628,-6.682751 -0.62687,-6.825586 -1.41366,-3.15161 -0.45328,2.11662 -1.76618,5.04162 -2.917556,6.5 L 96.80354,111.5 l 3.34823,0.54585 c 1.84153,0.30022 3.41971,0.52522 3.50708,0.5 0.0874,-0.0252 -0.10644,-3.19585 -0.43068,-7.04585 z m 31.84527,1.83889 c -2.81696,-1.97308 -2.72246,-4.55585 0.15191,-4.15175 1.58882,0.22337 2.31505,-0.25921 2.53893,-1.68714 0.95065,-6.06307 1.23665,-6.5 4.25477,-6.5 C 143.65857,95 145,94.752653 145,94.45034 145,91.11556 136.35159,82 133.18771,82 c -4.80915,0 -9.59048,7.025801 -6.72881,9.887476 C 127.84703,93.275603 128,93.159153 128,90.714286 128,88.507356 128.45374,88 130.42742,88 c 3.53018,0 6.88934,4.635843 6.14772,8.484218 C 135.54351,101.83755 128,105.73675 128,100.91667 c 0,-2.012978 -2.04864,-2.283353 -2.68353,-0.35417 -0.69609,2.11512 3.71025,7.38848 6.89544,8.25223 4.1631,1.12894 5.55527,0.41093 2.86153,-1.47584 z M 89.496975,89.635727 c -1.968664,-3.00456 -1.261668,-6.156108 1.741584,-7.7634 1.710577,-0.915473 2.345214,-0.794456 3.400243,0.648383 C 96.220038,84.683179 95.555121,86 92.881966,86 c -1.1,0 -1.721885,0.45 -1.381966,1 1.200021,1.941675 4.147099,0.959316 7.5,-2.5 2.31303,-2.386439 4.29835,-3.5 6.24,-3.5 1.76457,0 2.73849,0.475436 2.56062,1.25 -0.28672,1.248563 0.33612,1.75 2.1737,1.75 C 111.01287,84 114,78.823659 114,77.02398 c 0,-0.66536 -1.12484,-0.493665 -2.95034,0.45034 -4.58534,2.371172 -14.689713,1.979837 -19.520089,-0.755998 C 86.688445,73.976398 83,68.758605 83,64.652117 c 0,-3.953738 -1.623038,-2.357463 -2.509048,2.467674 -0.612508,3.335672 -0.45152,3.67329 2.051064,4.301398 2.587628,0.649454 2.686074,0.898062 2.08684,5.26995 -0.50523,3.686052 -0.284763,4.853376 1.121121,5.936096 1.640937,1.263744 1.60237,1.46347 -0.61872,3.204129 -1.990372,1.559847 -2.190102,2.190167 -1.250384,3.946046 0.616714,1.15234 2.352055,2.241473 3.868743,2.428096 3.634666,0.447232 3.680252,0.38019 1.747359,-2.569779 z M 79.600909,87.40237 c -1.393781,-3.632138 -2.761005,-15.999724 -2.174336,-19.668548 0.728614,-4.556501 2.941512,-9.286277 5.816972,-12.433003 l 2.009598,-2.19918 -2.876571,-0.696647 c -1.582115,-0.383156 -4.111001,-1.55948 -5.619748,-2.614054 -1.508746,-1.054574 -3.253142,-1.602231 -3.876435,-1.217014 -0.688024,0.425222 0.09506,1.216861 1.993175,2.014961 C 76.98401,51.47626 78,52.594895 78,54.031181 c 0,1.854255 -0.394218,2.041145 -3.067162,1.454068 -2.235086,-0.490907 -3.597925,-0.193329 -5.023634,1.096921 -2.598996,2.352058 -0.339238,3.929619 2.739411,1.912411 1.891716,-1.2395 2.331548,-1.223409 3.451689,0.126278 0.923829,1.113146 0.99135,2.013897 0.240845,3.212964 -1.238707,1.979057 -6.133436,2.77389 -7.662971,1.244355 C 66.639003,61.039003 66,62.011715 66,67.154988 c 0,4.930726 0.07956,5.082989 1.828741,3.5 C 69.798455,68.87242 74,68.392658 74,69.95031 c 0,0.52267 -0.7875,1.424107 -1.75,2.003192 -1.60773,0.967287 -1.539024,1.235542 0.845129,3.29969 3.374727,2.921768 4.088725,5.116024 2.407789,7.399609 -1.181063,1.604496 -1.083441,2.142825 0.742997,4.097199 2.442224,2.613292 4.241745,2.963204 3.354994,0.65237 z M 125.44649,75.5 C 127.47456,73.025 128.78525,71 128.35911,71 127.32518,71 120,78.188329 120,79.202948 c 0,1.863094 1.99944,0.503717 5.44649,-3.702948 z m -1.48812,-6.848492 c 0.0229,-0.46667 -1.50088,0.43333 -3.38617,2 -1.88529,1.566671 -3.46029,3.710966 -3.5,4.765102 -0.0554,1.470925 0.732,1.005849 3.38617,-2 1.90211,-2.154136 3.47711,-4.298431 3.5,-4.765102 z M 97,71.59362 c 0,-0.914051 -0.700137,-1.223291 -2,-0.883369 -1.623692,0.424605 -2,0.03068 -2,-2.09362 0,-5.363344 7.80399,-8.785087 12.23972,-5.366631 2.40987,1.857202 2.79317,7.074867 0.48073,6.543837 -0.70376,-0.16161 -1.37876,0.156163 -1.5,0.706163 -0.12125,0.55 0.99913,1 2.48972,1 3.78804,0 7.76098,-5.751124 6.10739,-8.840889 -1.4751,-2.756246 -2.76096,-4.002356 -7.32862,-7.102058 -5.05876,-3.432962 -6.595716,-3.340931 -5.857382,0.350735 C 100.28689,59.184461 98.124232,61 93.565741,61 c -2.775411,0 -3.242173,0.923568 -1.398524,2.767217 0.889624,0.889624 0.733668,1.333587 -0.655757,1.866759 -1.246441,0.478304 -2.377865,0.01428 -3.57751,-1.467217 C 85.623473,61.313441 85.177123,61.433398 85.763765,64.75 86.471259,68.749848 90.810704,73 94.187091,73 95.937566,73 97,72.468811 97,71.59362 z m 71,-7.40249 c 0,-0.444879 -0.66069,-1.682379 -1.4682,-2.75 -1.49888,-1.981697 -2.01804,-0.871823 -0.92481,1.977083 C 166.23397,65.052104 168,65.622512 168,64.19113 z m -42.0639,-5.264232 c 1.20032,-2.790207 2.04323,-5.772091 1.87315,-6.62641 C 127.61591,51.329375 125.06374,50.08076 121,48.969154 117.425,47.991239 110.45,45.752926 105.5,43.995125 94.685569,40.1548 87.375546,39.855594 80.345061,42.965512 c -3.528761,1.560939 -4.415129,2.36442 -3.556043,3.223506 1.921081,1.921081 6.50119,1.284143 10.946965,-1.522351 C 94.24559,40.557332 98,41.483984 98,47.2 c 0,2.256559 0.447217,2.8 2.30422,2.8 2.80753,0 11.14114,5.139012 12.89952,7.954635 C 113.90629,59.079586 115.02129,60 115.68153,60 c 2.12699,0 2.53302,-2.023617 0.90467,-4.508793 C 114.65143,52.538378 114.61424,52 116.34501,52 c 2.31098,0 4.80148,3.673295 5.37141,7.922384 0.3008,2.242689 0.88225,4.077616 1.29211,4.077616 0.40985,0 1.72726,-2.282896 2.92757,-5.073102 z m 18.54388,-1.987947 c 1.77925,-8.689427 4.42105,-12.109253 11.13826,-14.41852 3.25287,-1.118283 3.93334,-1.915976 5.12726,-6.010531 0.75713,-2.596618 1.16582,-4.93191 0.9082,-5.189538 -0.25763,-0.257628 -2.71277,0.328707 -5.45586,1.302968 -4.65017,1.651593 -5.02303,2.036715 -5.51371,5.694981 -0.79393,5.919177 -5.62486,10.384493 -12.84908,11.876631 -3.17318,0.655411 -6.0016,1.796706 -6.28538,2.536211 -0.9643,2.51293 2.30193,2.440125 6.72133,-0.149819 C 140.69359,51.1616 142.97368,50 143.33786,50 c 1.33279,0 0.60116,3.587757 -1.40151,6.872684 -1.13089,1.854977 -1.80397,4.029898 -1.49573,4.833158 1.07967,2.813581 2.93566,0.623307 4.03936,-4.766891 z m 13.81307,4.494173 C 152.4397,58.87103 151.37212,51.949617 156.52793,49.989381 158.93832,49.072953 160.14,45 158,45 c -0.55,0 -1,0.39375 -1,0.875 0,0.48125 -1.33062,1.141124 -2.95694,1.466388 -3.47812,0.695624 -5.7636,4.450842 -6.22785,10.232849 L 147.5,61.5 l 5,0.592896 c 8.34581,0.98964 9.31033,0.879791 5.79305,-0.659772 z m 7.22249,-8.482087 c 0.40047,-1.261774 -0.0539,-3.086672 -1.18261,-4.75 L 162.5,45.5 l -0.32046,3.345196 c -0.53865,5.622917 1.90136,8.626004 3.336,4.105841 z M 141.03811,45.75 c 3.73373,-1.882808 4.51303,-2.780388 4.77525,-5.5 0.17235,-1.7875 0.73485,-3.25 1.25,-3.25 C 147.57851,37 148,36.55 148,36 c 0,-2.172901 -3.03597,-0.831121 -4.49251,1.985513 -2.81959,5.452495 -9.62899,4.833006 -11.68434,-1.062992 C 131.26281,35.315135 130.35023,34 129.79519,34 c -0.57807,0 -0.69112,0.747573 -0.26466,1.75 0.40948,0.9625 1.19383,3.55 1.743,5.75 0.54916,2.2 1.14815,4.5625 1.33109,5.25 0.49681,1.867083 3.43994,1.518102 8.43349,-1 z M 77.553851,40.912868 c 0.369536,-0.597923 0.152356,-1.606661 -0.482624,-2.241641 -0.872678,-0.872678 -1.384718,-0.79038 -2.097555,0.337132 -0.518676,0.820403 -0.949937,1.829141 -0.958359,2.241641 -0.02358,1.155072 2.781475,0.887821 3.538538,-0.337132 z m 68.218429,-9.883527 c -0.37341,-1.973413 -5.42608,-2.561555 -7.46548,-0.868999 -1.39471,1.15751 -1.3032,1.378373 0.81047,1.955904 3.98596,1.089107 6.9744,0.60103 6.65501,-1.086905 z M 132,30.106989 c 0,-1.109067 -3.07642,-2.363906 -3.86417,-1.576155 -0.31785,0.317852 0.0841,0.996553 0.89313,1.508226 C 130.89882,31.221598 132,31.246775 132,30.106989 z M 71.500367,128.6409 c -2.617596,-3.99495 0.48098,-7.79162 4.572075,-5.60213 2.510655,1.34366 2.506556,5.58099 -0.0067,6.92605 -2.638412,1.41203 -2.804217,1.36395 -4.565374,-1.32392 z M 58,27 c 0,-0.55 0.45,-1 1,-1 0.55,0 1,0.45 1,1 0,0.55 -0.45,1 -1,1 -0.55,0 -1,-0.45 -1,-1 z"
       id="path3004"
       inkscape:connector-curvature="0"
       transform="matrix(2.8790489,0.16599986,-0.16599986,2.8790489,157.90845,336.48425)" />
  </g>
</svg>
